[Header]
FileType HTR
DataType HTRS
FileVersion 1
NumSegments 64
NumFrames 4
DataFrameRate 24
EulerRotationOrder ZYX
CalibrationUnits mm
RotationUnits Degrees
GlobalAxisofGravity Y
BoneLengthAxis Y
ScaleFactor 1.0
[SegmentNames&Hierarchy]
Hips	GLOBAL
Spine	Hips
Spine1	Spine
Spine2	Spine1
Neck	Spine2
Head	Neck
LeftEye	Head
RightEye	Head
LeftShoulder	Spine2
LeftArm	LeftShoulder
LeftForeArm	LeftArm
LeftHand	LeftForeArm
LeftHandThumb1	LeftHand
LeftHandThumb2	LeftHandThumb1
LeftHandThumb3	LeftHandThumb2
LeftHandThumb4	LeftHandThumb3
LeftHandIndex1	LeftHand
LeftHandIndex2	LeftHandIndex1
LeftHandIndex3	LeftHandIndex2
LeftHandIndex4	LeftHandIndex3
LeftHandMiddle1	LeftHand
LeftHandMiddle2	LeftHandMiddle1
LeftHandMiddle3	LeftHandMiddle2
LeftHandMiddle4	LeftHandMiddle3
LeftHandRing1	LeftHand
LeftHandRing2	LeftHandRing1
LeftHandRing3	LeftHandRing2
LeftHandRing4	LeftHandRing3
LeftHandPinky1	LeftHand
LeftHandPinky2	LeftHandPinky1
LeftHandPinky3	LeftHandPinky2
LeftHandPinky4	LeftHandPinky3
RightShoulder	Spine2
RightArm	RightShoulder
RightForeArm	RightArm
RightHand	RightForeArm
RightHandPinky1	RightHand
RightHandPinky2	RightHandPinky1
RightHandPinky3	RightHandPinky2
RightHandPinky4	RightHandPinky3
RightHandRing1	RightHand
RightHandRing2	RightHandRing1
RightHandRing3	RightHandRing2
RightHandRing4	RightHandRing3
RightHandMiddle1	RightHand
RightHandMiddle2	RightHandMiddle1
RightHandMiddle3	RightHandMiddle2
RightHandMiddle4	RightHandMiddle3
RightHandIndex1	RightHand
RightHandIndex2	RightHandIndex1
RightHandIndex3	RightHandIndex2
RightHandIndex4	RightHandIndex3
RightHandThumb1	RightHand
RightHandThumb2	RightHandThumb1
RightHandThumb3	RightHandThumb2
RightHandThumb4	RightHandThumb3
LeftUpLeg	Hips
LeftLeg	LeftUpLeg
LeftFoot	LeftLeg
LeftToeBase	LeftFoot
RightUpLeg	Hips
RightLeg	RightUpLeg
RightFoot	RightLeg
RightToeBase	RightFoot
[BasePosition]
Hips	0	0	0	0	0	0	1
Spine	0	0	0	0	0	0	1
Spine1	0	0	0	0	0	0	1
Spine2	0	0	0	0	0	0	1
Neck	0	0	0	0	0	0	1
Head	0	0	0	0	0	0	1
LeftEye	0	0	0	0	0	0	1
RightEye	0	0	0	0	0	0	1
LeftShoulder	0	0	0	0	0	0	1
LeftArm	0	0	0	0	0	0	1
LeftForeArm	0	0	0	0	0	0	1
LeftHand	0	0	0	0	0	0	1
LeftHandThumb1	0	0	0	0	0	0	1
LeftHandThumb2	0	0	0	0	0	0	1
LeftHandThumb3	0	0	0	0	0	0	1
LeftHandThumb4	0	0	0	0	0	0	1
LeftHandIndex1	0	0	0	0	0	0	1
LeftHandIndex2	0	0	0	0	0	0	1
LeftHandIndex3	0	0	0	0	0	0	1
LeftHandIndex4	0	0	0	0	0	0	1
LeftHandMiddle1	0	0	0	0	0	0	1
LeftHandMiddle2	0	0	0	0	0	0	1
LeftHandMiddle3	0	0	0	0	0	0	1
LeftHandMiddle4	0	0	0	0	0	0	1
LeftHandRing1	0	0	0	0	0	0	1
LeftHandRing2	0	0	0	0	0	0	1
LeftHandRing3	0	0	0	0	0	0	1
LeftHandRing4	0	0	0	0	0	0	1
LeftHandPinky1	0	0	0	0	0	0	1
LeftHandPinky2	0	0	0	0	0	0	1
LeftHandPinky3	0	0	0	0	0	0	1
LeftHandPinky4	0	0	0	0	0	0	1
RightShoulder	0	0	0	0	0	0	1
RightArm	0	0	0	0	0	0	1
RightForeArm	0	0	0	0	0	0	1
RightHand	0	0	0	0	0	0	1
RightHandPinky1	0	0	0	0	0	0	1
RightHandPinky2	0	0	0	0	0	0	1
RightHandPinky3	0	0	0	0	0	0	1
RightHandPinky4	0	0	0	0	0	0	1
RightHandRing1	0	0	0	0	0	0	1
RightHandRing2	0	0	0	0	0	0	1
RightHandRing3	0	0	0	0	0	0	1
RightHandRing4	0	0	0	0	0	0	1
RightHandMiddle1	0	0	0	0	0	0	1
RightHandMiddle2	0	0	0	0	0	0	1
RightHandMiddle3	0	0	0	0	0	0	1
RightHandMiddle4	0	0	0	0	0	0	1
RightHandIndex1	0	0	0	0	0	0	1
RightHandIndex2	0	0	0	0	0	0	1
RightHandIndex3	0	0	0	0	0	0	1
RightHandIndex4	0	0	0	0	0	0	1
RightHandThumb1	0	0	0	0	0	0	1
RightHandThumb2	0	0	0	0	0	0	1
RightHandThumb3	0	0	0	0	0	0	1
RightHandThumb4	0	0	0	0	0	0	1
LeftUpLeg	0	0	0	0	0	0	1
LeftLeg	0	0	0	0	0	0	1
LeftFoot	0	0	0	0	0	0	1
LeftToeBase	0	0	0	0	0	0	1
RightUpLeg	0	0	0	0	0	0	1
RightLeg	0	0	0	0	0	0	1
RightFoot	0	0	0	0	0	0	1
RightToeBase	0	0	0	0	0	0	1
[Hips]
176	3.088574648	1016.329346	15.42129421	-1.099603295	1.48493433	-5.318513393	1.0
177	3.226765633	1016.324951	15.36512566	-1.10387361	1.490658402	-5.322174072	1.0
178	3.367025852	1016.319824	15.30195045	-1.109285355	1.496147394	-5.326385498	1.0
179	3.506135702	1016.315002	15.23634911	-1.114978909	1.501593709	-5.331050873	1.0
[Spine]
176	0	101.8159943	1.315000057	0.9714689851	-1.316111684	2.985654116	1.0
177	0	101.8159943	1.315000057	0.9845007062	-1.317877173	2.990546465	1.0
178	0	101.8159943	1.315000057	0.9971704483	-1.32054162	2.995044708	1.0
179	0	101.8159943	1.315000057	1.009902477	-1.323115826	2.999118328	1.0
[Spine1]
176	0	100.8349991	-10.00800037	0.3492026031	0.1480896324	5.960603714	1.0
177	0	100.8349991	-10.00800037	0.3728127182	0.1499796808	5.959692955	1.0
178	0	100.8349991	-10.00800037	0.3963274956	0.1515946984	5.958052635	1.0
179	0	100.8349991	-10.00800037	0.4198705554	0.1531584561	5.956165314	1.0
[Spine2]
176	0	91	-13.73399925	0.3817327321	0.7065969706	5.870345592	1.0
177	0	91	-13.73399925	0.4054814875	0.7058802843	5.8697052	1.0
178	0	91	-13.73399925	0.429130733	0.7049220204	5.868329525	1.0
179	0	91	-13.73399925	0.4528058767	0.7039331794	5.866703987	1.0
[Neck]
176	0	166.7169952	-25.16200066	0.9390344024	-0.2610858381	-2.211889267	1.0
177	0	166.7169952	-25.16200066	0.9450785518	-0.2611555457	-2.211531878	1.0
178	0	166.7169952	-25.16200066	0.956946671	-0.2609890699	-2.211405277	1.0
179	0	166.7169952	-25.16200066	0.9701653719	-0.2607547641	-2.210871696	1.0
[Head]
176	0	96.17900085	16.84999847	1.351545453	0.7814333439	-8.292439461	1.0
177	0	96.17900085	16.84999847	1.351155162	0.7765526772	-8.281497955	1.0
178	0	96.17900085	16.84999847	1.363896608	0.7708621025	-8.265981674	1.0
179	0	96.17900085	16.84999847	1.380689859	0.765735507	-8.249622345	1.0
[LeftEye]
176	30.6760006	64.09500122	92.83599854	0	0	0	1.0
177	30.6760006	64.09500122	92.83599854	0	0	0	1.0
178	30.6760006	64.09500122	92.83599854	0	0	0	1.0
179	30.6760006	64.09500122	92.83599854	0	0	0	1.0
[RightEye]
176	-30.6760006	64.09500122	92.83499908	0	0	0	1.0
177	-30.6760006	64.09500122	92.83499908	0	0	0	1.0
178	-30.6760006	64.09500122	92.83499908	0	0	0	1.0
179	-30.6760006	64.09500122	92.83499908	0	0	0	1.0
[LeftShoulder]
176	45.70400238	109.4599991	-26.28000069	4.81680584	-13.35005093	-2.308727741	1.0
177	45.70400238	109.4599991	-26.28000069	4.823534966	-13.34712124	-2.551177263	1.0
178	45.70400238	109.4599991	-26.28000069	4.829879761	-13.34587765	-2.790237427	1.0
179	45.70400238	109.4599991	-26.28000069	4.835840702	-13.34599304	-3.026304007	1.0
[LeftArm]
176	105.923996	-5.24600029	-22.32099915	-3.06465745	4.589452267	-87.5930481	1.0
177	105.923996	-5.24600029	-22.32099915	-3.074722528	4.580193043	-87.3447113	1.0
178	105.923996	-5.24600029	-22.32099915	-3.088644743	4.576189041	-87.10242462	1.0
179	105.923996	-5.24600029	-22.32099915	-3.103862762	4.573914528	-86.86352539	1.0
[LeftForeArm]
176	278.414978	-0.0009999999311	0	-1.812460937e-06	-14.50397682	-0.0002192373504	1.0
177	278.414978	-0.0009999999311	0	9.311537497e-07	-14.50029087	-0.0002276160521	1.0
178	278.414978	-0.0009999999311	0	5.052397682e-06	-14.4951849	-0.0002409872832	1.0
179	278.414978	-0.0009999999311	0	8.777717085e-06	-14.49014091	-0.0002516835812	1.0
[LeftHand]
176	283.2879944	0	0	-27.74104118	-1.285678387	-10.18863297	1.0
177	283.2879944	0	0	-27.74577904	-1.288716793	-10.18725109	1.0
178	283.2879944	0	0	-27.75283051	-1.30935061	-10.19620132	1.0
179	283.2879944	0	0	-27.7599926	-1.333832026	-10.20770836	1.0
[LeftHandThumb1]
176	24.6609993	-15.75	26.8239994	17.7500782	-4.692211151	9.637458801	1.0
177	24.6609993	-15.75	26.8239994	17.77131462	-4.640357971	9.67510891	1.0
178	24.6609993	-15.75	26.8239994	17.79233932	-4.589227676	9.71227932	1.0
179	24.6609993	-15.75	26.8239994	17.8132267	-4.538532257	9.749156952	1.0
[LeftHandThumb2]
176	32.29800034	-18.64699936	18.64699936	-0.8538768888	31.75572968	-3.07845664	1.0
177	32.29800034	-18.64699936	18.64699936	-0.8288892508	31.82077408	-3.064355373	1.0
178	32.29800034	-18.64699936	18.64699936	-0.8042062521	31.88495064	-3.050414562	1.0
179	32.29800034	-18.64699936	18.64699936	-0.779712081	31.94859886	-3.03657794	1.0
[LeftHandThumb3]
176	26.52600098	-15.31499958	15.31499958	1.811395407	8.299844742	-0.2709878981	1.0
177	26.52600098	-15.31499958	15.31499958	1.828849077	8.364686966	-0.2551085949	1.0
178	26.52600098	-15.31499958	15.31499958	1.846097469	8.428655624	-0.2394143343	1.0
179	26.52600098	-15.31499958	15.31499958	1.863218188	8.492095947	-0.223832041	1.0
[LeftHandThumb4]
176	19.54599953	-11.28499985	11.28499985	0	0	0	1.0
177	19.54599953	-11.28499985	11.28499985	0	0	0	1.0
178	19.54599953	-11.28499985	11.28499985	0	0	0	1.0
179	19.54599953	-11.28499985	11.28499985	0	0	0	1.0
[LeftHandIndex1]
176	91.09299469	-5.170999527	22.60099792	-0.3311941326	4.705233574	-8.210292816	1.0
177	91.09299469	-5.170999527	22.60099792	-0.3292835057	4.703024387	-8.187016487	1.0
178	91.09299469	-5.170999527	22.60099792	-0.3273992538	4.700842857	-8.164049149	1.0
179	91.09299469	-5.170999527	22.60099792	-0.3255312145	4.69867897	-8.141267776	1.0
[LeftHandIndex2]
176	36.76399994	0	0	-0.6459771395	2.803033113	-20.93800163	1.0
177	36.76399994	0	0	-0.6448429227	2.80096221	-20.91476822	1.0
178	36.76399994	0	0	-0.643725872	2.798918009	-20.89184761	1.0
179	36.76399994	0	0	-0.6426187158	2.796889782	-20.86911583	1.0
[LeftHandIndex3]
176	28.83100128	0	0	-0.1163289174	0.8415750265	-10.53485584	1.0
177	28.83100128	0	0	-0.1159027368	0.8392825127	-10.51166534	1.0
178	28.83100128	0	0	-0.1154828221	0.8370209932	-10.4887867	1.0
179	28.83100128	0	0	-0.1150665879	0.8347780108	-10.46609688	1.0
[LeftHandIndex4]
176	23.92700005	0	0	0	0	0	1.0
177	23.92700005	0	0	0	0	0	1.0
178	23.92700005	0	0	0	0	0	1.0
179	23.92700005	0	0	0	0	0	1.0
[LeftHandMiddle1]
176	95.33399963	0	0	-1.566243291	8.704236984	-16.24998665	1.0
177	95.33399963	0	0	-1.563404799	8.702558517	-16.22650146	1.0
178	95.33399963	0	0	-1.560604811	8.700901031	-16.20332718	1.0
179	95.33399963	0	0	-1.55782795	8.69925499	-16.18034363	1.0
[LeftHandMiddle2]
176	36.98199844	0	0	-1.452099085	3.850524902	-33.78403473	1.0
177	36.98199844	0	0	-1.45048821	3.848803282	-33.76071548	1.0
178	36.98199844	0	0	-1.448899746	3.847104788	-33.73770523	1.0
179	36.98199844	0	0	-1.44732523	3.845419168	-33.71488953	1.0
[LeftHandMiddle3]
176	29.50900078	0	0	-0.1575229615	1.520884633	-12.62911415	1.0
177	29.50900078	0	0	-0.1569760591	1.518640757	-12.60591125	1.0
178	29.50900078	0	0	-0.1564377993	1.516426325	-12.5830183	1.0
179	29.50900078	0	0	-0.1559042782	1.514230728	-12.56031418	1.0
[LeftHandMiddle4]
176	28.3390007	0	0	0	0	0	1.0
177	28.3390007	0	0	0	0	0	1.0
178	28.3390007	0	0	0	0	0	1.0
179	28.3390007	0	0	0	0	0	1.0
[LeftHandRing1]
176	91.04499817	-0.4390000105	-18.65100098	-2.878936768	11.48169994	-25.86965942	1.0
177	91.04499817	-0.4390000105	-18.65100098	-2.888102531	11.48612213	-25.93901825	1.0
178	91.04499817	-0.4390000105	-18.65100098	-2.897151709	11.49047279	-26.00745773	1.0
179	91.04499817	-0.4390000105	-18.65100098	-2.906129837	11.49477959	-26.07533264	1.0
[LeftHandRing2]
176	31.54000092	0	0	-1.132553697	3.970969677	-39.12371826	1.0
177	31.54000092	0	0	-1.13664186	3.976388931	-39.19235992	1.0
178	31.54000092	0	0	-1.140682936	3.9817307	-39.26008224	1.0
179	31.54000092	0	0	-1.144694924	3.987025976	-39.32725525	1.0
[LeftHandRing3]
176	29.37700081	0	0	-0.06797387451	1.799670815	-18.26773453	1.0
177	29.37700081	0	0	-0.06946279109	1.806287289	-18.33587646	1.0
178	29.37700081	0	0	-0.07094210386	1.812813401	-18.40310669	1.0
179	29.37700081	0	0	-0.07241439819	1.819285154	-18.46978569	1.0
[LeftHandRing4]
176	26.47500038	0	0	0	0	0	1.0
177	26.47500038	0	0	0	0	0	1.0
178	26.47500038	0	0	0	0	0	1.0
179	26.47500038	0	0	0	0	0	1.0
[LeftHandPinky1]
176	80.77799988	-4.887000084	-38.06099701	-4.911122322	16.11121559	-35.78424835	1.0
177	80.77799988	-4.887000084	-38.06099701	-4.930911541	16.11238289	-35.85546112	1.0
178	80.77799988	-4.887000084	-38.06099701	-4.950439453	16.11351776	-35.92572403	1.0
179	80.77799988	-4.887000084	-38.06099701	-4.969808578	16.11463737	-35.9954071	1.0
[LeftHandPinky2]
176	36	0	0	-1.865578294	3.746246099	-44.58882523	1.0
177	36	0	0	-1.870635509	3.750826836	-44.65723419	1.0
178	36	0	0	-1.87563324	3.755338192	-44.72472382	1.0
179	36	0	0	-1.8805933	3.75980854	-44.79166412	1.0
[LeftHandPinky3]
176	21.14200211	0	0	-0.4981568456	2.736467361	-19.45606995	1.0
177	21.14200211	0	0	-0.5009819269	2.742688179	-19.52428627	1.0
178	21.14200211	0	0	-0.5037786365	2.74882102	-19.59159279	1.0
179	21.14200211	0	0	-0.5065572262	2.754900932	-19.65834618	1.0
[LeftHandPinky4]
176	19.75699997	0	0	0	0	0	1.0
177	19.75699997	0	0	0	0	0	1.0
178	19.75699997	0	0	0	0	0	1.0
179	19.75699997	0	0	0	0	0	1.0
[RightShoulder]
176	-45.70000076	109.4620056	-26.28000069	5.422544956	2.719762087	2.335916519	1.0
177	-45.70000076	109.4620056	-26.28000069	5.384776592	2.720758438	2.557307243	1.0
178	-45.70000076	109.4620056	-26.28000069	5.347452164	2.719338894	2.77233696	1.0
179	-45.70000076	109.4620056	-26.28000069	5.310379028	2.71807909	2.985574484	1.0
[RightArm]
176	-105.9280014	-5.248000145	-22.32099915	0.5337246656	1.429646492	70.6548233	1.0
177	-105.9280014	-5.248000145	-22.32099915	0.4981984496	1.425706625	70.4377594	1.0
178	-105.9280014	-5.248000145	-22.32099915	0.4600069225	1.420300364	70.228508	1.0
179	-105.9280014	-5.248000145	-22.32099915	0.4222179949	1.414078951	70.02134705	1.0
[RightForeArm]
176	-278.414978	0	0	1.458825409e-06	17.77131462	2.606984935e-06	1.0
177	-278.414978	0	0	2.014376832e-06	17.77448273	9.612309441e-06	1.0
178	-278.414978	0	0	2.696721367e-06	17.77654457	2.338981358e-05	1.0
179	-278.414978	0	0	3.055289199e-06	17.77832222	3.563497012e-05	1.0
[RightHand]
176	-283.2879944	0	0.0009999999311	-12.64404678	-6.774250031	11.74827385	1.0
177	-283.2879944	0	0.0009999999311	-12.67156029	-6.777165413	11.74903297	1.0
178	-283.2879944	0	0.0009999999311	-12.707201	-6.779049873	11.74880314	1.0
179	-283.2879944	0	0.0009999999311	-12.74441624	-6.780847073	11.7475605	1.0
[RightHandPinky1]
176	-80.76699829	-4.885000229	-38.06000137	-4.911036491	-16.11233139	35.78458405	1.0
177	-80.76699829	-4.885000229	-38.06000137	-4.930826664	-16.11349678	35.85579681	1.0
178	-80.76699829	-4.885000229	-38.06000137	-4.95035553	-16.11463165	35.92605972	1.0
179	-80.76699829	-4.885000229	-38.06000137	-4.969726563	-16.11575317	35.9957428	1.0
[RightHandPinky2]
176	-36	0	0.0009999999311	-1.864227533	-3.744548559	44.58878708	1.0
177	-36	0	0.0009999999311	-1.869282484	-3.749130487	44.65719223	1.0
178	-36	0	0.0009999999311	-1.874277592	-3.753643513	44.72468948	1.0
179	-36	0	0.0009999999311	-1.879235268	-3.758115768	44.79162598	1.0
[RightHandPinky3]
176	-21.14200211	0	0	-0.7176048756	0.1507692635	21.05500793	1.0
177	-21.14200211	0	0	-0.7205988169	0.1446307302	21.12307739	1.0
178	-21.14200211	0	0	-0.7235615849	0.1385784149	21.19023895	1.0
179	-21.14200211	0	0	-0.7265046835	0.1325780153	21.2568512	1.0
[RightHandPinky4]
176	-19.75699997	0	0	0	0	0	1.0
177	-19.75699997	0	0	0	0	0	1.0
178	-19.75699997	0	0	0	0	0	1.0
179	-19.75699997	0	0	0	0	0	1.0
[RightHandRing1]
176	-91.03599548	-0.4390000105	-18.65100098	-2.878876209	-11.48134518	25.86983871	1.0
177	-91.03599548	-0.4390000105	-18.65100098	-2.888041258	-11.48576736	25.93919754	1.0
178	-91.03599548	-0.4390000105	-18.65100098	-2.897089243	-11.49011612	26.00762749	1.0
179	-91.03599548	-0.4390000105	-18.65100098	-2.906065464	-11.49442482	26.07549477	1.0
[RightHandRing2]
176	-31.54000092	0	0	-1.132375836	-3.970470905	39.12374878	1.0
177	-31.54000092	0	0	-1.136463761	-3.975888491	39.19238281	1.0
178	-31.54000092	0	0	-1.140505672	-3.981227636	39.26010895	1.0
179	-31.54000092	0	0	-1.144518614	-3.986520052	39.32727432	1.0
[RightHandRing3]
176	-29.37700081	0	0	-0.1168277487	0.1943610162	16.74592209	1.0
177	-29.37700081	0	0	-0.1181389838	0.1877079606	16.81401253	1.0
178	-29.37700081	0	0	-0.1194420308	0.1811455339	16.88119698	1.0
179	-29.37700081	0	0	-0.120739311	0.1746378988	16.9478302	1.0
[RightHandRing4]
176	-26.47500038	0	0	0	0	0	1.0
177	-26.47500038	0	0	0	0	0	1.0
178	-26.47500038	0	0	0	0	0	1.0
179	-26.47500038	0	0	0	0	0	1.0
[RightHandMiddle1]
176	-95.32500458	0	0	-1.566219091	-8.704011917	16.25012207	1.0
177	-95.32500458	0	0	-1.56338048	-8.702332497	16.22663116	1.0
178	-95.32500458	0	0	-1.560580969	-8.700674057	16.20344925	1.0
179	-95.32500458	0	0	-1.557804823	-8.699029922	16.18045998	1.0
[RightHandMiddle2]
176	-36.98199844	0	0	-1.451967835	-3.850081682	33.78408051	1.0
177	-36.98199844	0	0	-1.450357199	-3.848358631	33.76075363	1.0
178	-36.98199844	0	0	-1.448768377	-3.846657753	33.73773575	1.0
179	-36.98199844	0	0	-1.447192907	-3.844970465	33.7149086	1.0
[RightHandMiddle3]
176	-29.50900078	0	0	-0.2641769052	-1.712873101	16.26378059	1.0
177	-29.50900078	0	0	-0.2634878159	-1.710670352	16.2405777	1.0
178	-29.50900078	0	0	-0.2628088593	-1.708496809	16.2176857	1.0
179	-29.50900078	0	0	-0.2621360719	-1.706340909	16.19497871	1.0
[RightHandMiddle4]
176	-28.3390007	0	0.0009999999311	0	0	0	1.0
177	-28.3390007	0	0.0009999999311	0	0	0	1.0
178	-28.3390007	0	0.0009999999311	0	0	0	1.0
179	-28.3390007	0	0.0009999999311	0	0	0	1.0
[RightHandIndex1]
176	-91.08300018	-5.167999744	22.60099792	-0.3311856389	-4.705116749	8.210333824	1.0
177	-91.08300018	-5.167999744	22.60099792	-0.3292755485	-4.702908516	8.18706131	1.0
178	-91.08300018	-5.167999744	22.60099792	-0.3273923397	-4.70072794	8.164104462	1.0
179	-91.08300018	-5.167999744	22.60099792	-0.3255252838	-4.698565483	8.141336441	1.0
[RightHandIndex2]
176	-36.76399994	0	0	-0.6459296346	-2.802743196	20.93803406	1.0
177	-36.76399994	0	0	-0.6447942257	-2.800673008	20.91480446	1.0
178	-36.76399994	0	0	-0.6436752081	-2.798630238	20.89188957	1.0
179	-36.76399994	0	0	-0.642565906	-2.796604156	20.86916161	1.0
[RightHandIndex3]
176	-28.83100128	0	0	-0.2473848909	-0.1929976642	14.20880508	1.0
177	-28.83100128	0	0	-0.2468131632	-0.1907370389	14.18561935	1.0
178	-28.83100128	0	0	-0.2462499887	-0.1885062456	14.16274261	1.0
179	-28.83100128	0	0	-0.2456919551	-0.1862935573	14.1400547	1.0
[RightHandIndex4]
176	-23.92700005	0	0	0	0	0	1.0
177	-23.92700005	0	0	0	0	0	1.0
178	-23.92700005	0	0	0	0	0	1.0
179	-23.92700005	0	0	0	0	0	1.0
[RightHandThumb1]
176	-24.64799881	-15.72700024	26.82600021	17.74974442	4.692416191	-9.637670517	1.0
177	-24.64799881	-15.72700024	26.82600021	17.77098274	4.640562057	-9.67531395	1.0
178	-24.64799881	-15.72700024	26.82600021	17.79200935	4.589430809	-9.71248436	1.0
179	-24.64799881	-15.72700024	26.82600021	17.81290054	4.538736343	-9.749364853	1.0
[RightHandThumb2]
176	-32.29800034	-18.64699936	18.64699936	-0.8545781374	-31.75440598	3.080166578	1.0
177	-32.29800034	-18.64699936	18.64699936	-0.8295966387	-31.81944275	3.066077709	1.0
178	-32.29800034	-18.64699936	18.64699936	-0.8049234152	-31.88360786	3.052160263	1.0
179	-32.29800034	-18.64699936	18.64699936	-0.7804396749	-31.94724655	3.038348436	1.0
[RightHandThumb3]
176	-26.52600098	-15.31399918	15.31399918	1.604958773	-7.442325115	1.075875044	1.0
177	-26.52600098	-15.31399918	15.31399918	1.621453047	-7.507409096	1.060369849	1.0
178	-26.52600098	-15.31399918	15.31399918	1.637750268	-7.571619987	1.045036793	1.0
179	-26.52600098	-15.31399918	15.31399918	1.653926134	-7.635300636	1.029813409	1.0
[RightHandThumb4]
176	-19.54599953	-11.28499985	11.28499985	0	0	0	1.0
177	-19.54599953	-11.28499985	11.28499985	0	0	0	1.0
178	-19.54599953	-11.28499985	11.28499985	0	0	0	1.0
179	-19.54599953	-11.28499985	11.28499985	0	0	0	1.0
[LeftUpLeg]
176	82.07800293	-67.51699829	-15.99599934	-17.36364174	15.25710011	12.12260246	1.0
177	82.07800293	-67.51699829	-15.99599934	-17.37130737	15.25391865	12.11859226	1.0
178	82.07800293	-67.51699829	-15.99599934	-17.37874222	15.25068092	12.11542702	1.0
179	82.07800293	-67.51699829	-15.99599934	-17.3861618	15.24751854	12.11282253	1.0
[LeftLeg]
176	0	-443.7049866	2.845999956	24.87298393	7.675288677	6.063314438	1.0
177	0	-443.7049866	2.845999956	24.88695526	7.672999382	6.062654495	1.0
178	0	-443.7049866	2.845999956	24.9021492	7.670564651	6.062402248	1.0
179	0	-443.7049866	2.845999956	24.91753578	7.668040276	6.062470436	1.0
[LeftFoot]
176	0	-444.2789917	-29.8219986	-3.942178249	2.753148317	-11.29314423	1.0
177	0	-444.2789917	-29.8219986	-3.947690964	2.749535561	-11.28821278	1.0
178	0	-444.2789917	-29.8219986	-3.952398777	2.743840218	-11.28394318	1.0
179	0	-444.2789917	-29.8219986	-3.956564665	2.737504482	-11.28052616	1.0
[LeftToeBase]
176	0	-87.28699493	107.1060028	-0.4528004527	1.498599545e-06	-1.231415467e-06	1.0
177	0	-87.28699493	107.1060028	-0.4570068419	9.706985111e-06	-1.305108299e-06	1.0
178	0	-87.28699493	107.1060028	-0.4611811638	2.036532896e-05	-1.336122295e-06	1.0
179	0	-87.28699493	107.1060028	-0.4650405347	2.953539843e-05	-1.580430876e-06	1.0
[RightUpLeg]
176	-82.07800293	-67.51699829	-15.99599934	-2.012051582	-4.56923914	11.01603031	1.0
177	-82.07800293	-67.51699829	-15.99599934	-2.021265507	-4.57325983	11.00910378	1.0
178	-82.07800293	-67.51699829	-15.99599934	-2.029991627	-4.577577591	11.00202656	1.0
179	-82.07800293	-67.51699829	-15.99599934	-2.038115978	-4.581930161	10.99540043	1.0
[RightLeg]
176	0	-443.7049866	2.861999989	11.63149261	-5.663613796	2.117026329	1.0
177	0	-443.7049866	2.861999989	11.651371	-5.663620472	2.118454456	1.0
178	0	-443.7049866	2.861999989	11.67197895	-5.661710262	2.12101078	1.0
179	0	-443.7049866	2.861999989	11.69163609	-5.660096645	2.123806953	1.0
[RightFoot]
176	0	-444.2770081	-29.83799934	-9.799387932	-0.3638291061	-8.139508247	1.0
177	0	-444.2770081	-29.83799934	-9.805244446	-0.3630536795	-8.132171631	1.0
178	0	-444.2770081	-29.83799934	-9.810909271	-0.3622341752	-8.125374794	1.0
179	0	-444.2770081	-29.83799934	-9.816020966	-0.3613479137	-8.118816376	1.0
[RightToeBase]
176	0	-87.28699493	107.1060028	-0.6029253006	1.247118007e-06	-4.227737008e-06	1.0
177	0	-87.28699493	107.1060028	-0.6006219387	-1.565107709e-06	-3.84809664e-06	1.0
178	0	-87.28699493	107.1060028	-0.5967740417	-5.969895938e-06	-2.813821084e-06	1.0
179	0	-87.28699493	107.1060028	-0.5922772288	-1.002989393e-05	-1.527025347e-06	1.0
[EndOfFile]
